<?xml version="1.0" encoding="utf-8"?>
<!-- Generator: Adobe Illustrator 18.1.0, SVG Export Plug-In . SVG Version: 6.00 Build 0)  -->
<!DOCTYPE svg PUBLIC "-//W3C//DTD SVG 1.1//EN" "http://www.w3.org/Graphics/SVG/1.1/DTD/svg11.dtd">
<svg version="1.1" id="Layer_1" xmlns="http://www.w3.org/2000/svg" xmlns:xlink="http://www.w3.org/1999/xlink" x="0px" y="0px"
	 viewBox="0 96.8 200 13.1" enable-background="new 0 96.8 200 13.1" xml:space="preserve">
<g id="Layer_1_2_">
	<g id="Layer_1_1_">
		<path fill="#646464" d="M39.6,105.7v-0.9h1.6c0.1,0,0.2-0.1,0.2-0.1v-0.1c0-0.1-0.1-0.2-0.2-0.2h-0.8c-0.1,0-0.3,0-0.4-0.1
			c-0.3-0.2-0.4-0.4-0.4-0.7V103c0-0.1,0-0.1,0-0.2c0.1-0.4,0.4-0.6,0.8-0.6h1.8l0,0.9h-1.6c0,0,0,0-0.1,0c-0.1,0.1-0.1,0.1-0.1,0.1
			v0.1c0,0.1,0.1,0.2,0.2,0.2h0.8c0.2,0,0.4,0.1,0.5,0.2s0.2,0.3,0.2,0.5v0.6c0,0.2-0.1,0.3-0.1,0.4s-0.2,0.2-0.3,0.3
			c-0.1,0.1-0.2,0.1-0.4,0.1C41.4,105.7,39.6,105.7,39.6,105.7L39.6,105.7z M42.8,105.7V103c0-0.1,0-0.1,0-0.2
			c0.1-0.4,0.3-0.7,0.8-0.7h1.2c0.5,0,0.8,0.2,0.8,0.7c0,0.1,0,0.1,0,0.2v2.7h-0.9v-2.4c0-0.1-0.1-0.2-0.3-0.2H44
			c-0.2,0-0.3,0.1-0.3,0.2v2.4L42.8,105.7C42.8,105.7,42.8,105.7,42.8,105.7L42.8,105.7z M46.3,104.9v-0.7c0-0.3,0.1-0.5,0.2-0.6
			c0.2-0.2,0.4-0.2,0.6-0.2h1.2v-0.2c0-0.1-0.1-0.1-0.2-0.2h-1.8v-0.9h2c0,0,0.1,0,0.2,0c0.4,0.1,0.7,0.3,0.7,0.7c0,0.1,0,0.1,0,0.2
			v1.8c0,0.1,0,0.1,0,0.2c0,0.2-0.1,0.4-0.3,0.5c-0.2,0.1-0.3,0.2-0.5,0.2h-1.2c-0.5,0-0.8-0.2-0.9-0.6
			C46.4,105,46.4,104.9,46.3,104.9L46.3,104.9z M47.3,104.7c0,0,0.1,0.1,0.1,0.1h0.7c0.2,0,0.2-0.1,0.2-0.2v-0.2
			c0-0.1,0-0.2-0.1-0.2c0,0-0.1,0-0.1,0h-0.8c-0.1,0-0.1,0.1-0.1,0.2v0.3C47.2,104.6,47.2,104.7,47.3,104.7L47.3,104.7z M49.9,107
			v-3.9c0-0.1,0-0.1,0-0.2c0.1-0.4,0.3-0.7,0.7-0.7c0.1,0,0.1,0,0.1,0h1.3c0.1,0,0.1,0,0.2,0c0.4,0.1,0.7,0.4,0.7,0.9v1.8
			c0,0.2-0.1,0.3-0.2,0.4c0,0-0.1,0.1-0.1,0.1c-0.2,0.2-0.4,0.2-0.6,0.2h-1.2v1.3H49.9L49.9,107z M50.7,104.6c0,0.1,0.1,0.2,0.2,0.2
			h0.7c0.1,0,0.1,0,0.2-0.1c0-0.1,0.1-0.1,0.1-0.1v-1.3c0-0.1-0.1-0.2-0.2-0.2H51c-0.1,0-0.2,0.1-0.2,0.2c0,0,0,0.1,0,0.1
			L50.7,104.6L50.7,104.6z M53.4,105.7v-4c0-0.2,0.1-0.4,0.3-0.6c0.2-0.1,0.4-0.2,0.7-0.2h0.5v0.8h-0.4c-0.2,0-0.2,0.1-0.2,0.3v0.2
			h0.6v0.9h-0.6v2.6L53.4,105.7L53.4,105.7z M55.2,104.9v-0.7c0-0.3,0.1-0.5,0.2-0.6c0.2-0.2,0.4-0.2,0.6-0.2h1.2v-0.2
			c0-0.1-0.1-0.1-0.2-0.2h-1.8v-0.9h2c0,0,0.1,0,0.2,0c0.4,0.1,0.7,0.3,0.7,0.7c0,0.1,0,0.1,0,0.2v1.8c0,0.1,0,0.1,0,0.2
			c0,0.2-0.1,0.4-0.3,0.5c-0.2,0.1-0.3,0.2-0.5,0.2h-1.2c-0.5,0-0.8-0.2-0.9-0.6C55.2,105,55.2,104.9,55.2,104.9L55.2,104.9z
			 M56.1,104.7c0,0,0.1,0.1,0.1,0.1H57c0.2,0,0.2-0.1,0.2-0.2v-0.2c0-0.1,0-0.2-0.1-0.2c0,0-0.1,0-0.1,0h-0.8
			c-0.1,0-0.1,0.1-0.1,0.2v0.3C56.1,104.6,56.1,104.7,56.1,104.7z M58.7,105.7v-0.9h1.6c0.1,0,0.2-0.1,0.2-0.1v-0.1
			c0-0.1-0.1-0.2-0.2-0.2h-0.8c-0.1,0-0.3,0-0.4-0.1c-0.3-0.2-0.4-0.4-0.4-0.7V103c0-0.1,0-0.1,0-0.2c0.1-0.4,0.4-0.6,0.8-0.6h1.8
			l0,0.9h-1.6c0,0,0,0-0.1,0c-0.1,0.1-0.1,0.1-0.1,0.1v0.1c0,0.1,0.1,0.2,0.2,0.2h0.8c0.2,0,0.4,0.1,0.5,0.2
			c0.2,0.2,0.2,0.3,0.2,0.5v0.6c0,0.2-0.1,0.3-0.1,0.4c-0.1,0.1-0.2,0.2-0.3,0.3c-0.1,0.1-0.2,0.1-0.4,0.1L58.7,105.7L58.7,105.7z
			 M61.9,105.7v-4.8h0.9v1.3h0.6v0.9h-0.6v2.6H61.9z"/>
		<path opacity="0.34" fill="#646464" enable-background="new    " d="M39.6,105.7v-0.9h1.6c0.1,0,0.2-0.1,0.2-0.1v-0.1
			c0-0.1-0.1-0.2-0.2-0.2h-0.8c-0.1,0-0.3,0-0.4-0.1c-0.3-0.2-0.4-0.4-0.4-0.7V103c0-0.1,0-0.1,0-0.2c0.1-0.4,0.4-0.6,0.8-0.6h1.8
			l0,0.9h-1.6c0,0,0,0-0.1,0c-0.1,0.1-0.1,0.1-0.1,0.1v0.1c0,0.1,0.1,0.2,0.2,0.2h0.8c0.2,0,0.4,0.1,0.5,0.2s0.2,0.3,0.2,0.5v0.6
			c0,0.2-0.1,0.3-0.1,0.4s-0.2,0.2-0.3,0.3c-0.1,0.1-0.2,0.1-0.4,0.1C41.4,105.7,39.6,105.7,39.6,105.7L39.6,105.7z M42.8,105.7V103
			c0-0.1,0-0.1,0-0.2c0.1-0.4,0.3-0.7,0.8-0.7h1.2c0.5,0,0.8,0.2,0.8,0.7c0,0.1,0,0.1,0,0.2v2.7h-0.9v-2.4c0-0.1-0.1-0.2-0.3-0.2H44
			c-0.2,0-0.3,0.1-0.3,0.2v2.4L42.8,105.7C42.8,105.7,42.8,105.7,42.8,105.7L42.8,105.7z M46.3,104.9v-0.7c0-0.3,0.1-0.5,0.2-0.6
			c0.2-0.2,0.4-0.2,0.6-0.2h1.2v-0.2c0-0.1-0.1-0.1-0.2-0.2h-1.8v-0.9h2c0,0,0.1,0,0.2,0c0.4,0.1,0.7,0.3,0.7,0.7c0,0.1,0,0.1,0,0.2
			v1.8c0,0.1,0,0.1,0,0.2c0,0.2-0.1,0.4-0.3,0.5c-0.2,0.1-0.3,0.2-0.5,0.2h-1.2c-0.5,0-0.8-0.2-0.9-0.6
			C46.4,105,46.4,104.9,46.3,104.9L46.3,104.9z M47.3,104.7c0,0,0.1,0.1,0.1,0.1h0.7c0.2,0,0.2-0.1,0.2-0.2v-0.2
			c0-0.1,0-0.2-0.1-0.2c0,0-0.1,0-0.1,0h-0.8c-0.1,0-0.1,0.1-0.1,0.2v0.3C47.2,104.6,47.2,104.7,47.3,104.7L47.3,104.7z M49.9,107
			v-3.9c0-0.1,0-0.1,0-0.2c0.1-0.4,0.3-0.7,0.7-0.7c0.1,0,0.1,0,0.1,0h1.3c0.1,0,0.1,0,0.2,0c0.4,0.1,0.7,0.4,0.7,0.9v1.8
			c0,0.2-0.1,0.3-0.2,0.4c0,0-0.1,0.1-0.1,0.1c-0.2,0.2-0.4,0.2-0.6,0.2h-1.2v1.3H49.9L49.9,107z M50.7,104.6c0,0.1,0.1,0.2,0.2,0.2
			h0.7c0.1,0,0.1,0,0.2-0.1c0-0.1,0.1-0.1,0.1-0.1v-1.3c0-0.1-0.1-0.2-0.2-0.2H51c-0.1,0-0.2,0.1-0.2,0.2c0,0,0,0.1,0,0.1
			L50.7,104.6L50.7,104.6z M53.4,105.7v-4c0-0.2,0.1-0.4,0.3-0.6c0.2-0.1,0.4-0.2,0.7-0.2h0.5v0.8h-0.4c-0.2,0-0.2,0.1-0.2,0.3v0.2
			h0.6v0.9h-0.6v2.6L53.4,105.7L53.4,105.7z M55.2,104.9v-0.7c0-0.3,0.1-0.5,0.2-0.6c0.2-0.2,0.4-0.2,0.6-0.2h1.2v-0.2
			c0-0.1-0.1-0.1-0.2-0.2h-1.8v-0.9h2c0,0,0.1,0,0.2,0c0.4,0.1,0.7,0.3,0.7,0.7c0,0.1,0,0.1,0,0.2v1.8c0,0.1,0,0.1,0,0.2
			c0,0.2-0.1,0.4-0.3,0.5c-0.2,0.1-0.3,0.2-0.5,0.2h-1.2c-0.5,0-0.8-0.2-0.9-0.6C55.2,105,55.2,104.9,55.2,104.9L55.2,104.9z
			 M56.1,104.7c0,0,0.1,0.1,0.1,0.1H57c0.2,0,0.2-0.1,0.2-0.2v-0.2c0-0.1,0-0.2-0.1-0.2c0,0-0.1,0-0.1,0h-0.8
			c-0.1,0-0.1,0.1-0.1,0.2v0.3C56.1,104.6,56.1,104.7,56.1,104.7z M58.7,105.7v-0.9h1.6c0.1,0,0.2-0.1,0.2-0.1v-0.1
			c0-0.1-0.1-0.2-0.2-0.2h-0.8c-0.1,0-0.3,0-0.4-0.1c-0.3-0.2-0.4-0.4-0.4-0.7V103c0-0.1,0-0.1,0-0.2c0.1-0.4,0.4-0.6,0.8-0.6h1.8
			l0,0.9h-1.6c0,0,0,0-0.1,0c-0.1,0.1-0.1,0.1-0.1,0.1v0.1c0,0.1,0.1,0.2,0.2,0.2h0.8c0.2,0,0.4,0.1,0.5,0.2
			c0.2,0.2,0.2,0.3,0.2,0.5v0.6c0,0.2-0.1,0.3-0.1,0.4c-0.1,0.1-0.2,0.2-0.3,0.3c-0.1,0.1-0.2,0.1-0.4,0.1L58.7,105.7L58.7,105.7z
			 M61.9,105.7v-4.8h0.9v1.3h0.6v0.9h-0.6v2.6H61.9z"/>
	</g>
	<g id="Layer_2_1_">
		<path fill="#646464" d="M189.7,105.1c0.3,0.6,0.6,1.2,1,1.8c0,0.1,0.2,0.1,0.3,0.1c1.5,0,2.9,0,4.4,0h0.4
			c-0.3,0.5-0.6,0.9-0.8,1.4c-0.2,0.5-0.5,0.6-1,0.6c-1.4,0-2.7,0-4.1,0c-0.2,0-0.3,0-0.4-0.2c-0.2-0.4-0.4-0.8-0.7-1.1
			c0,0-0.1-0.1-0.1-0.2c-0.2,0.5-0.5,0.9-0.7,1.3c0,0.1-0.2,0.2-0.3,0.2c-0.9,0-1.9,0-2.8,0c-0.1,0-0.2-0.1-0.3-0.2
			c-0.5-0.9-1.1-1.8-1.6-2.7c-0.5-0.9-1.1-1.8-1.6-2.7c-0.2-0.3-0.3-0.5-0.5-0.8c0-0.1,0-0.3,0-0.4c0.3-0.6,0.7-1.1,1.1-1.7
			c0.2,0.3,0.3,0.6,0.5,0.8c0.5,0.8,1,1.7,1.4,2.5c0.6,1,1.1,1.9,1.7,2.9c0.1,0.2,0.2,0.2,0.4,0.2c0.6,0,1.2,0,1.8,0
			c0.4,0,0.5-0.1,0.7-0.4c0.3-0.5,0.5-1,0.8-1.5c0.4-0.8,0.8-1.6,1.3-2.4c0-0.1,0.1-0.1,0.1-0.2c0.5,0.8,1,1.7,1.5,2.6
			C191.4,105.1,190.6,105.1,189.7,105.1L189.7,105.1z"/>
		<path fill="#646464" d="M182.2,100.3c0.4-0.7,0.8-1.3,1.1-1.9c0.1-0.1,0.2-0.2,0.3-0.2c0.6,0,1.2,0,1.8,0c0.2,0,0.3,0.1,0.4,0.2
			c0.6,0.9,1.1,1.9,1.7,2.8c0.1,0.2,0.2,0.4,0.3,0.6c0.4-0.7,0.8-1.4,1.1-2.1c0.2-0.5,0.5-0.9,0.7-1.4c0-0.1,0.1-0.1,0.2-0.1
			c1,0,2,0,3.1,0c0.1,0,0.2,0.1,0.2,0.2c0.4,0.7,0.8,1.4,1.3,2.1l1.3,2.2c0.4,0.6,0.7,1.2,1.1,1.8c0.1,0.1,0.1,0.3,0,0.3
			c-0.3,0.6-0.6,1.2-1,1.8c-0.4-0.6-0.8-1.2-1.1-1.8c-0.4-0.7-0.8-1.3-1.2-2c-0.5-0.8-0.9-1.5-1.4-2.3c-0.1-0.1-0.2-0.2-0.3-0.2
			c-0.7,0-1.5,0-2.2,0c-0.2,0-0.3,0.1-0.4,0.3c-0.7,1.4-1.5,2.7-2.2,4.1c-0.3-0.5-0.6-1-0.9-1.5l-0.9-1.6c-0.2-0.4-0.5-0.8-0.7-1.2
			c-0.1-0.2-0.2-0.2-0.4-0.2C183.6,100.3,182.9,100.3,182.2,100.3L182.2,100.3z"/>
	</g>
</g>
<g id="Layer_2">
	<path fill="#646464" d="M137.8,102.2c0,0,0.3-0.1,0.3-0.6c0,0,0-0.2,0-0.5c0,0,0-0.2-0.1-0.3c0,0-0.3,0-0.6,0.1
		c0,0-0.8,0.2-1.9,0.8c0,0-0.5,0.3-0.6,0.4c0,0-0.1,0.1,0,0.2c0,0,0.2,0,0.4,0h0.1c0,0-0.3,0.2-0.4,0.3c0,0-0.4,0.3-0.6,0.5
		c0,0-0.2,0.3-0.2,0.8c0,0,0,0.6,0.4,1.3c0,0,0.1,0.2,0.2,0.3c0,0,0.1,0.1,0.3,0.1c0,0,1,0.1,1.6-0.1c0,0,0.9-0.1,0.9-0.5
		c0,0,0-0.2,0-0.3c0,0,0,0,0.1,0c0,0,0.5-0.1,0.6-0.4c0,0,0-0.1,0.1-0.3c0,0,0-0.1,0-0.2c0,0,0-0.1-0.1,0c0,0-0.4,0.1-0.7,0.1
		c0,0-1,0.2-1.9,0.1c0,0-0.4,0-0.3-0.3c0,0,0.2-0.2,0.6-0.5c0,0,0.6-0.4,1.1-0.6C136.7,102.5,137.5,102.2,137.8,102.2L137.8,102.2z
		 M140.9,105.7l-0.1-0.5c-0.1-0.5-0.1-0.9-0.1-0.9c0-0.3,0.1-0.8,0.1-0.8c0-0.2,0-0.2,0-0.2c-0.3-0.4-0.6-0.7-0.6-0.7
		c-0.1-0.1-0.2,0-0.2,0l-0.1,0c-0.1,0.1-0.2,0-0.2,0c-0.1-0.1-0.2,0-0.2,0c-0.1,0.1-0.5,0.4-0.5,0.4c-0.1,0.1,0,0.1,0,0.2
		c0,0,0,0.1,0,0.1c-0.1,0.1-0.4,0.7-0.4,0.7c-0.2,0.2-0.3,0.6-0.3,0.6c-0.1,0.2-0.1,0.8-0.1,0.8c0,0.2,0.1,0.3,0.1,0.3
		c0.1,0.2,0.3,0.1,0.3,0.1c0.1,0,0.5-0.3,0.5-0.3c0.1-0.1,0.6-0.4,0.6-0.4l0,0c0.1,0.2,0.4,0.7,0.4,0.7c0.1,0.1,0.1,0.1,0.1,0.1
		c0.1,0,0.1,0,0.1,0l0.3,0.1C141,105.9,140.9,105.7,140.9,105.7L140.9,105.7z M139.6,103.9c0,0-0.4,0.3-0.6,0.5c0,0-0.1,0.2-0.1,0
		c0,0,0-0.2,0.2-0.4c0,0,0.1-0.2,0.2-0.3c0,0,0.1,0,0.2,0.1C139.5,103.8,139.7,103.9,139.6,103.9z M142.8,100.9c0,0,0.1-0.1,0.2-0.1
		h0.2c0,0,0.1,0,0.1,0.1l0,0.5c0,0,0,0.1-0.1,0.4c0,0-0.1,0.1-0.1,0.3l-0.4,1.3c0,0,0,0.1,0,0.1c0,0,0.2,0.1,0.2,0.2c0,0,0,0,0.1,0
		c0,0,0.2-0.1,0.2,0.2c0,0,0,0.2-0.2,0.6c0,0,0.1,1.1,0.1,1.6c0,0,0,0.3,0,0.5c0,0,0,0.2-0.2,0.3c0,0-0.4,0.2-0.7,0.2
		c0,0-0.1,0-0.2-0.1c0,0-0.3-0.4-0.5-0.8c0,0-0.2-0.4-0.2-0.6c0,0-0.1-0.4-0.1-0.8c0,0,0-0.5,0.1-0.9c0,0,0.2-0.8,0.6-1.5
		c0,0,0.4-0.9,0.6-1.1C142.6,101.2,142.8,100.9,142.8,100.9L142.8,100.9z"/>
	<path fill="#646464" d="M142.5,105.7c0,0.2,0.1,0.3,0.1,0.3c0.1,0.1,0.2-0.2,0.2-0.2l0-0.9c0-0.1-0.1-0.1-0.1-0.1h-0.1
		c-0.1,0-0.1,0.1-0.1,0.1C142.4,105.2,142.5,105.7,142.5,105.7L142.5,105.7z M145.6,104.6c0,0-0.3,0.1-0.5,0c0,0-0.2-0.1-0.3-0.2
		c0,0,0,0,0,0c0,0,0.8-0.7,0.9-0.9c0,0,0.2-0.3,0.2-0.6c0,0-0.1-0.2-0.5-0.3c0,0-0.3-0.1-0.5,0c0,0-0.1,0-0.2,0.1c0,0-0.4,0.3-0.9,1
		c0,0-0.3,0.4-0.3,0.9c0,0,0,0.3,0.2,0.6c0,0,0.3,0.4,0.7,0.5c0,0,0.5,0.1,0.8-0.1c0,0,0.2-0.1,0.2-0.3c0,0,0-0.1,0.1-0.1
		c0,0,0-0.1,0.1-0.1c0,0,0.2-0.1,0.2-0.2v-0.2C145.8,104.6,145.8,104.5,145.6,104.6L145.6,104.6z M144.6,103.8c0,0,0-0.2,0.2-0.4
		c0,0,0.1-0.2,0.2-0.3c0,0,0.2,0,0.3,0.1c0,0-0.1,0.1-0.3,0.3C144.9,103.6,144.6,103.9,144.6,103.8L144.6,103.8z M152.2,104.7
		c0-0.2-0.2-0.2-0.2-0.2c-0.1,0-0.4-0.1-0.4-0.1c-0.6-0.2-1.2-0.6-1.2-0.6c-0.3-0.2-0.6-0.5-0.6-0.5c0.3,0,1.1-0.1,1.1-0.1
		c0.4,0,0.8-0.1,0.8-0.1c0.5-0.1,0.5-0.4,0.5-0.4c0-0.2-0.1-0.6-0.1-0.6c-0.1-0.1-0.1-0.4-0.1-0.4c-0.1-0.3-0.4-0.4-0.4-0.4
		c-0.4-0.2-1.1-0.4-1.1-0.4c-0.4-0.1-0.9-0.1-0.9-0.1c-0.1,0-0.3,0.1-0.3,0.1l-0.4,0.1c-0.2,0.1-0.4,0.1-0.4,0.1
		c-0.2,0-0.2,0.2-0.2,0.2c0,0.1,0,0.3,0,0.3c0,0.2,0.1,0.2,0.2,0.1l0.1,0c0.1,0,0.1,0.1,0.1,0.1l-0.1,0.4c-0.1,0.5-0.1,1-0.2,1.5v0
		c-0.1,0.5,0.1,1.3,0.1,1.3c0.1,0.2,0.1,0.3,0.1,0.3c0.1,0.1,0.3,0.2,0.3,0.2c0.3,0.2,0.3-0.1,0.3-0.1l0.1-0.5c0-0.1,0-0.2,0-0.2
		c0.3,0.2,0.9,0.5,0.9,0.5c0.5,0.3,0.9,0.3,0.9,0.3c0.2,0,0.2,0,0.2,0c0.2-0.1,0.4-0.4,0.4-0.4c0.1-0.1,0.3-0.1,0.3-0.1
		C152.3,104.9,152.2,104.7,152.2,104.7L152.2,104.7z M149.7,102.1c0.1,0,0.3,0,0.4,0c0.5,0.1,1.1,0.2,1.1,0.2
		c0.1,0.1,0.1,0.1,0.1,0.1c0,0.1-0.4,0.2-0.4,0.2c-0.5,0.1-1.2,0.3-1.2,0.3C149.6,102.5,149.7,102.1,149.7,102.1L149.7,102.1z
		 M152.9,102.3l0.5-0.6c0,0,0.1-0.1,0.1-0.1l0.5-0.1c0,0,0.1-0.1,0.2,0.1l0.1,0.3c0,0,0.1,0.1-0.1,0.3l-0.7,0.6c0,0-0.1,0.1-0.3,0
		l-0.3-0.2C153,102.5,152.9,102.4,152.9,102.3z M153.7,103.1c0,0,0.2-0.1,0.3-0.1c0,0,0,0,0.1,0.1c0,0,0.1,0.1,0.1,0.3
		c0,0-0.1,0.6-0.2,1.1c0,0-0.1,0.9-0.2,1c0,0-0.1,0.3-0.4,0.2c0,0-0.2-0.1-0.4-0.2c0,0-0.1-0.1-0.2-0.2c0,0-0.1-0.3-0.1-0.4
		c0,0,0-0.1-0.1-0.1h-0.1c0,0-0.1,0-0.1-0.2c0,0,0-0.3,0-0.4c0,0,0-0.2,0.2-0.4C152.7,103.8,153,103.4,153.7,103.1z M156.7,103.1
		c-0.5-0.5-0.9-0.5-0.9-0.5c-0.4-0.1-0.6,0.1-0.6,0.1l-0.6,0.6c-0.1,0.1,0,0.2,0,0.2c0.1,0.1,0,0.3,0,0.3c-0.1,0.3-0.1,0.8-0.1,0.8
		c0,0.3,0,0.7,0,0.7c0,0.2,0.2,0.3,0.2,0.3c0.3,0.1,0.7-0.1,0.7-0.1c0.4-0.3,0.7-0.6,0.7-0.6c0.5-0.7,0.6-1.3,0.6-1.3
		C156.9,103.3,156.7,103.1,156.7,103.1L156.7,103.1z M155.8,104.1c0,0-0.3,0.3-0.4,0.2c0,0-0.1-0.1,0-0.4c0,0,0-0.1,0-0.1
		C155.3,103.8,155.7,103.9,155.8,104.1C155.8,104.1,155.8,104.1,155.8,104.1L155.8,104.1z"/>
</g>
<g>
	<polygon fill="#646464" points="10,98.2 12.8,98.2 12.8,105.1 	"/>
	<polygon fill="#646464" points="8,98.2 5.1,98.2 5.1,105.1 	"/>
	<polygon fill="#646464" points="9,100.8 10.8,105.1 9.6,105.1 9.1,103.7 7.7,103.7 	"/>
	<g>
		<path fill="#646464" d="M5.7,108.2l-0.1,0.6c0,0,0,0,0,0H5.2c0,0,0,0,0,0l0.5-2.1c0-0.1,0-0.1,0-0.2c0,0,0,0,0,0h0.5c0,0,0,0,0,0
			l0.6,2.4c0,0,0,0,0,0H6.4c0,0,0,0,0,0l-0.1-0.6L5.7,108.2L5.7,108.2z M6.1,107.8c-0.1-0.3-0.2-0.7-0.2-1l0,0c0,0.3-0.1,0.6-0.2,1
			H6.1z"/>
		<path fill="#646464" d="M6.9,107.9c0-0.6,0.3-1,0.8-1h0.1v-0.6c0,0,0,0,0,0h0.4c0,0,0,0,0,0v2.2c0,0.1,0,0.1,0,0.3c0,0,0,0,0,0
			c-0.2,0.1-0.4,0.1-0.5,0.1C7.2,108.9,6.9,108.6,6.9,107.9z M7.7,107.4C7.7,107.4,7.7,107.4,7.7,107.4c-0.3,0-0.5,0.2-0.5,0.6
			c0,0.4,0.2,0.6,0.4,0.6c0,0,0.1,0,0.1,0V107.4z"/>
		<path fill="#646464" d="M9.8,107.9c0,0.6-0.3,1-0.7,1c-0.5,0-0.7-0.4-0.7-1c0-0.6,0.3-1,0.7-1C9.5,107,9.8,107.3,9.8,107.9z
			 M8.9,107.9c0,0.4,0.1,0.6,0.2,0.6s0.2-0.2,0.2-0.6c0-0.4-0.1-0.6-0.2-0.6C9,107.4,8.9,107.5,8.9,107.9z"/>
		<path fill="#646464" d="M10.5,106.3C10.5,106.3,10.5,106.3,10.5,106.3l0,0.7c0.1,0,0.1,0,0.2,0c0.4,0,0.7,0.3,0.7,0.9
			c0,0.7-0.4,1-0.9,1c-0.1,0-0.3,0-0.4-0.1c0,0,0,0,0,0v-2.5c0,0,0,0,0,0L10.5,106.3L10.5,106.3z M10.6,107.4c0,0-0.1,0-0.1,0v1.1
			c0,0,0.1,0,0.1,0c0.2,0,0.4-0.2,0.4-0.6C10.9,107.5,10.8,107.4,10.6,107.4z"/>
		<path fill="#646464" d="M12,108c0,0.3,0.1,0.5,0.4,0.5c0.1,0,0.2,0,0.3-0.1c0,0,0,0,0,0v0.3c0,0,0,0,0,0.1
			c-0.1,0.1-0.3,0.1-0.4,0.1c-0.6,0-0.8-0.4-0.8-0.9c0-0.6,0.3-1,0.7-1c0.5,0,0.6,0.4,0.6,0.7c0,0.1,0,0.2,0,0.3c0,0,0,0,0,0
			c0,0-0.2,0-0.4,0L12,108L12,108z M12.3,107.7c0.1,0,0.1,0,0.1,0c0,0,0,0,0,0c0-0.1-0.1-0.3-0.2-0.3s-0.2,0.2-0.2,0.3L12.3,107.7
			L12.3,107.7z"/>
	</g>
</g>
<g>
	<path fill="#646464" d="M106.8,101.3c0,0.2,0,0.3-0.3,0.3c-0.3,0-0.3-0.2-0.3-0.3V100c0-0.7-0.6-1.1-1.2-1.1H94.5
		c-0.6,0-1.2,0.5-1.2,1.1v7.1c0,0.7,0.6,1.1,1.2,1.1H105c0.3,0,0.6-0.1,0.9-0.3c0.2-0.2,0.3-0.5,0.3-0.8v-1.4H95.9
		c-0.2,0-0.3-0.2-0.3-0.3v-4.1c0-0.2,0-0.3,0.3-0.3s0.3,0.2,0.3,0.3v3.8h10.4c0.2,0,0.3,0.1,0.3,0.3l0,1.7c0,0.5-0.2,0.9-0.5,1.2
		c-0.3,0.3-0.8,0.5-1.3,0.5H94.5c-1,0-1.8-0.8-1.8-1.8V100c0-1,0.9-1.8,1.8-1.8H105c1,0,1.8,0.8,1.8,1.8V101.3L106.8,101.3z
		 M102.7,101.3c0-0.2,0-0.3,0.3-0.3c0.3,0,0.3,0.2,0.3,0.3v1l1.2-1.2c0.1-0.1,0.2-0.2,0.4,0c0.2,0.2,0.1,0.3,0,0.4l-1.1,1.1l1.1,1.1
		c0.1,0.1,0.2,0.2,0,0.4c-0.2,0.2-0.3,0.1-0.4,0l-1.1-1.1l-0.1,0.1v0.8c0,0.2,0,0.3-0.3,0.3c-0.3,0-0.3-0.2-0.3-0.3V101.3
		L102.7,101.3z M96.7,103.2v-1c0-0.3,0.1-0.6,0.3-0.8c0.2-0.2,0.5-0.3,0.8-0.3c0.3,0,0.6,0.1,0.8,0.3c0.2,0.2,0.3,0.5,0.3,0.8v1
		c0,0.3-0.1,0.6-0.3,0.8c-0.2,0.2-0.5,0.3-0.8,0.3c-0.3,0-0.6-0.1-0.8-0.3C96.9,103.7,96.7,103.5,96.7,103.2L96.7,103.2z
		 M97.3,102.2v1c0,0.1,0.1,0.2,0.1,0.3c0.1,0.1,0.2,0.1,0.4,0.1c0.1,0,0.3-0.1,0.4-0.1c0.1-0.1,0.1-0.2,0.1-0.3v-1
		c0-0.1-0.1-0.2-0.1-0.3c-0.1-0.1-0.2-0.1-0.4-0.1c-0.1,0-0.3,0.1-0.4,0.1C97.4,101.9,97.3,102,97.3,102.2L97.3,102.2z M102,102
		c0,0.2,0,0.3-0.3,0.3c-0.3,0-0.3-0.2-0.3-0.3c0-0.1,0-0.2-0.1-0.3c-0.1-0.1-0.2-0.1-0.4-0.1c-0.1,0-0.3,0.1-0.4,0.2
		c-0.1,0.1-0.2,0.2-0.2,0.4v1c0,0.1,0.1,0.3,0.2,0.4c0.1,0.1,0.2,0.2,0.4,0.2c0.2,0,0.3,0,0.4-0.1c0.1-0.1,0.1-0.1,0.1-0.2
		c0-0.2,0-0.3,0.3-0.3c0.3,0,0.3,0.2,0.3,0.3c0,0.3-0.1,0.6-0.3,0.7c-0.2,0.2-0.5,0.2-0.8,0.2c-0.3,0-0.6-0.1-0.8-0.3
		c-0.2-0.2-0.3-0.5-0.3-0.8v-1c0-0.3,0.1-0.6,0.3-0.8c0.2-0.2,0.5-0.3,0.8-0.3c0.3,0,0.6,0.1,0.8,0.3C101.9,101.4,102,101.7,102,102
		L102,102z"/>
</g>
</svg>
